<?xml version="1.0" encoding="UTF-8"?>
<!DOCTYPE svg PUBLIC "-//W3C//DTD SVG 1.1//EN" "http://www.w3.org/Graphics/SVG/1.1/DTD/svg11.dtd">
<!-- Creator: CorelDRAW -->
<svg xmlns="http://www.w3.org/2000/svg" xml:space="preserve" width="6.82666in" height="6.82666in" style="shape-rendering:geometricPrecision; text-rendering:geometricPrecision; image-rendering:optimizeQuality; fill-rule:evenodd; clip-rule:evenodd"
viewBox="0 0 6.82666 6.82666"
 xmlns:xlink="http://www.w3.org/1999/xlink">
 <defs>
  <style type="text/css">
   <![CDATA[
    .fil3 {fill:none}
    .fil2 {fill:#373737;fill-rule:nonzero}
    .fil1 {fill:#A4A4A4;fill-rule:nonzero}
    .fil0 {fill:#B8B8B8;fill-rule:nonzero}
   ]]>
  </style>
 </defs>
 <g id="Layer_x0020_1">
  <metadata id="CorelCorpID_0Corel-Layer"/>
  <g id="_510990304">
   <path id="_510991312" class="fil0" d="M5.8673 5.07891c0.0589449,0 0.106732,-0.0477874 0.106732,-0.106732l0 -2.28887c0,-0.0589449 -0.0477874,-0.106732 -0.106732,-0.106732l-2.17715 0 -0.00272047 0 -0.00272047 0 -2.17715 0c-0.0589449,0 -0.106728,0.0477874 -0.106728,0.106732l0 2.28887c0,0.0589449 0.0477835,0.106732 0.106728,0.106732 1.67807,0 2.68167,0 4.35974,0z"/>
   <path id="_510990112" class="fil1" d="M3.68743 3.97886l0.00165354 -0.00109055 2.05699 -1.229 -1.44288 1.08046 1.45852 1.03578 -1.65442 -0.90661 -0.360134 0.237472 6.69291e-005 9.44882e-005c-0.0179252,0.012122 -0.0381969,0.018063 -0.0583189,0.0183189l-0.00148031 7.87402e-006 -0.00148031 -7.87402e-006c-0.0201181,-0.000255906 -0.0403937,-0.00619685 -0.058315,-0.0183189l6.29921e-005 -9.44882e-005 -0.360134 -0.237472 -1.65442 0.90661 1.45852 -1.03578 -1.44288 -1.08046 2.05699 1.229 0.00165354 0.00109055z"/>
  </g>
  <path class="fil2" d="M1.91339 1.68541c-0.147705,0.000496063 -0.279992,0.0243701 -0.396366,0.0706181 -0.116374,0.046252 -0.217831,0.110906 -0.30337,0.194457 -0.0860354,0.0830512 -0.157154,0.180528 -0.21335,0.292425 -0.0562008,0.111898 -0.0979764,0.233248 -0.125827,0.365039 -0.0273504,0.131291 -0.0412756,0.268555 -0.0412756,0.411287 0,0.154169 0.0184016,0.293421 0.0552008,0.418252 0.0368031,0.124827 0.0935,0.231752 0.170087,0.320772 0.0765866,0.0895197 0.174563,0.15815 0.293421,0.205894 0.118862,0.0477441 0.260102,0.0721142 0.42422,0.0726102 0.069626,0.000496063 0.13726,-0.00447638 0.203406,-0.0139252 0.0656457,-0.00944882 0.130299,-0.0263583 0.192961,-0.0497323 0.0631614,-0.023374 0.124831,-0.0561969 0.185504,-0.0974764l0.0179016 -0.205894c-0.0626614,0.0482402 -0.125823,0.0860394 -0.18948,0.11389 -0.0636575,0.0273504 -0.128807,0.046748 -0.194949,0.057689 -0.0661457,0.011437 -0.133783,0.0169094 -0.203409,0.0164134 -0.172571,-0.0005 -0.314807,-0.0338189 -0.426705,-0.0994685 -0.111398,-0.0656457 -0.193957,-0.160138 -0.247665,-0.283472 -0.0542087,-0.122843 -0.0810669,-0.271043 -0.0805669,-0.443614 0,-0.13428 0.0109409,-0.260102 0.0338189,-0.377969 0.022378,-0.11737 0.0561969,-0.224295 0.101949,-0.32028 0.0457559,-0.0964803 0.103445,-0.179035 0.173071,-0.248661 0.069626,-0.0691299 0.151185,-0.122343 0.245181,-0.160138 0.0944921,-0.0372992 0.200917,-0.0561969 0.320276,-0.0566969 0.148701,0.0005 0.270547,0.0288465 0.365535,0.0850433 0.0944921,0.0557008 0.164118,0.134776 0.209374,0.236728 0.0447598,0.101949 0.0671378,0.222303 0.0666417,0.361555 0.000996063,0.0591811 -0.00198819,0.121843 -0.00845276,0.188484 -0.0064685,0.0661457 -0.0164134,0.131295 -0.0313346,0.194953 -0.0144213,0.0641535 -0.0333189,0.122343 -0.057189,0.174563 -0.023874,0.0522165 -0.0527165,0.0939921 -0.0870354,0.125323 -0.034315,0.0308346 -0.0745984,0.046752 -0.12035,0.0477441 -0.0248661,-0.000496063 -0.0437638,-0.00646457 -0.057689,-0.0179016 -0.0134291,-0.011937 -0.0223819,-0.0273543 -0.0268583,-0.046748 -0.00447638,-0.0193976 -0.00497244,-0.0402835 -0.00198819,-0.0636614l0.0895197 -0.856394 -0.202909 0 -0.0208898 0.185008c-0.0179016,-0.0631614 -0.0482402,-0.111402 -0.0915079,-0.145717 -0.0427677,-0.0338189 -0.0979724,-0.0507283 -0.16511,-0.0512244 -0.0736024,-0.00149213 -0.136268,0.0149173 -0.187988,0.0497323 -0.0517244,0.034811 -0.093,0.0850394 -0.123339,0.150689 -0.0303346,0.0656457 -0.0497323,0.144224 -0.058685,0.235232l-0.0328228 0.298398c-0.00895276,0.0890197 -0.0059685,0.167598 0.00944882,0.235732 0.0154173,0.0681339 0.0452598,0.121346 0.0885236,0.160138 0.0432677,0.0387913 0.102449,0.0591811 0.176551,0.0606732 0.0731063,0.000996063 0.135272,-0.0159134 0.186,-0.0512244 0.0512244,-0.034811 0.0915079,-0.0855394 0.121346,-0.151685 0.00497638,0.0656496 0.0273543,0.115878 0.0676378,0.150693 0.0402835,0.034315 0.0959843,0.0517205 0.168094,0.0522165 0.070126,-0.000496063 0.13776,-0.0208858 0.202413,-0.0626614 0.0651496,-0.0412795 0.123335,-0.101457 0.174563,-0.181524 0.0517205,-0.0795709 0.0925,-0.177047 0.122839,-0.291929 0.0303346,-0.115382 0.045752,-0.247173 0.046252,-0.394878 0.000496063,-0.123835 -0.0139252,-0.23772 -0.0427717,-0.342161 -0.0293425,-0.103941 -0.0755945,-0.194949 -0.139748,-0.272035 -0.0636575,-0.0775827 -0.147705,-0.137264 -0.251646,-0.180031 -0.103941,-0.0427717 -0.23076,-0.0646535 -0.380457,-0.0651496zm-0.0865354 0.802681c0.0437677,0.0005 0.0790748,0.0104449 0.106429,0.0308346 0.0273543,0.0198937 0.046748,0.0477441 0.057689,0.0835512 0.0109409,0.0358071 0.0139252,0.0770866 0.00895276,0.124331l-0.0298386 0.286461c-0.0059685,0.0542087 -0.0184016,0.100957 -0.0368031,0.14124 -0.0188976,0.0397874 -0.0442598,0.070622 -0.0765866,0.0925039 -0.0318307,0.0218819 -0.070622,0.0323268 -0.116374,0.0318268 -0.046748,-0.00149213 -0.0835512,-0.0134252 -0.110406,-0.0363031 -0.0268583,-0.022878 -0.0452598,-0.0547047 -0.0547087,-0.0944921 -0.00944882,-0.0397874 -0.0109409,-0.0855394 -0.00497244,-0.13776l0.0268543 -0.268555c0.00895276,-0.081063 0.0323268,-0.144224 0.070126,-0.188488 0.0377953,-0.0442598 0.0910079,-0.0661417 0.159638,-0.0651496z"/>
 </g>
 <rect class="fil3" width="6.82666" height="6.82666"/>
</svg>
